<?xml version="1.0" standalone="no"?>
<!DOCTYPE svg PUBLIC "-//W3C//DTD SVG 1.1//EN" "http://www.w3.org/Graphics/SVG/1.1/DTD/svg11.dtd">
<svg width="96" height="96" version="1.1" xmlns="http://www.w3.org/2000/svg">
 <desc>Zint Generated Symbol</desc>
 <g id="barcode" fill="#000000">
  <rect x="0" y="0" width="96" height="96" fill="#FFFFFF"/>
  <path d="M0 0h8v24h-8ZM16 0h8v8h-8ZM32 0h8v8h-8ZM48 0h8v8h-8ZM64 0h8v8h-8ZM80 0h8v8h-8ZM32 8h64v8h-64ZM16 16h16v8h-16ZM40 16h24v8h-24ZM72 16h16v8h-16ZM0 24h16v8h-16ZM24 24h8v8h-8ZM40 24h16v8h-16ZM88 24h8v8h-8ZM0 32h8v8h-8ZM16 32h16v8h-16ZM48 32h16v8h-16ZM72 32h8v8h-8ZM0 40h32v8h-32ZM40 40h8v16h-8ZM56 40h8v16h-8ZM80 40h16v8h-16ZM0 48h8v16h-8ZM16 48h16v8h-16ZM72 48h16v8h-16ZM24 56h16v8h-16ZM48 56h48v8h-48ZM0 64h48v8h-48ZM56 64h8v8h-8ZM80 64h8v8h-8ZM0 72h24v8h-24ZM40 72h8v8h-8ZM56 72h24v8h-24ZM88 72h8v8h-8ZM0 80h16v8h-16ZM24 80h8v8h-8ZM48 80h8v8h-8ZM80 80h8v8h-8ZM0 88h96v8h-96Z"/>
 </g>
</svg>
