<?xml version="1.0" standalone="no"?>
<!DOCTYPE svg PUBLIC "-//W3C//DTD SVG 1.1//EN" "http://www.w3.org/Graphics/SVG/1.1/DTD/svg11.dtd">
<svg width="168" height="168" version="1.1" xmlns="http://www.w3.org/2000/svg">
 <desc>Zint Generated Symbol</desc>
 <g id="barcode" fill="#000000">
  <rect x="0" y="0" width="168" height="168" fill="#FFFFFF"/>
  <path d="M0 0h56v8h-56ZM80 0h8v8h-8ZM96 0h8v32h-8ZM112 0h56v8h-56ZM0 8h8v40h-8ZM48 8h8v40h-8ZM64 8h8v8h-8ZM112 8h8v40h-8ZM160 8h8v40h-8ZM16 16h24v24h-24ZM64 16h24v8h-24ZM128 16h24v24h-24ZM64 24h16v8h-16ZM64 32h8v8h-8ZM64 40h16v8h-16ZM88 40h16v8h-16ZM0 48h56v8h-56ZM64 48h8v8h-8ZM80 48h8v8h-8ZM96 48h8v8h-8ZM112 48h56v8h-56ZM72 56h32v8h-32ZM16 64h8v8h-8ZM40 64h40v8h-40ZM88 64h8v8h-8ZM104 64h8v8h-8ZM120 64h40v8h-40ZM8 72h8v8h-8ZM24 72h8v16h-8ZM56 72h16v8h-16ZM88 72h40v8h-40ZM0 80h16v8h-16ZM48 80h24v8h-24ZM80 80h8v8h-8ZM96 80h48v8h-48ZM152 80h8v8h-8ZM8 88h8v8h-8ZM40 88h8v8h-8ZM64 88h16v8h-16ZM96 88h16v8h-16ZM120 88h8v8h-8ZM144 88h8v8h-8ZM160 88h8v8h-8ZM0 96h8v8h-8ZM16 96h8v8h-8ZM32 96h32v8h-32ZM88 96h56v8h-56ZM152 96h16v8h-16ZM64 104h8v8h-8ZM80 104h8v8h-8ZM136 104h16v16h-16ZM160 104h8v8h-8ZM0 112h56v8h-56ZM64 112h16v8h-16ZM96 112h8v8h-8ZM112 112h8v8h-8ZM0 120h8v40h-8ZM48 120h8v40h-8ZM64 120h8v8h-8ZM80 120h8v8h-8ZM96 120h24v16h-24ZM128 120h8v8h-8ZM152 120h16v8h-16ZM16 128h24v24h-24ZM72 128h16v8h-16ZM136 128h32v8h-32ZM80 136h24v8h-24ZM112 136h16v8h-16ZM136 136h16v8h-16ZM64 144h16v8h-16ZM88 144h8v8h-8ZM112 144h32v8h-32ZM152 144h16v8h-16ZM72 152h16v8h-16ZM120 152h8v8h-8ZM136 152h16v8h-16ZM0 160h56v8h-56ZM72 160h24v8h-24ZM112 160h40v8h-40ZM160 160h8v8h-8Z"/>
 </g>
</svg>
