<?xml version="1.0" standalone="no"?>
<!DOCTYPE svg PUBLIC "-//W3C//DTD SVG 1.1//EN" "http://www.w3.org/Graphics/SVG/1.1/DTD/svg11.dtd">
<svg width="615" height="193" version="1.1" xmlns="http://www.w3.org/2000/svg">
 <desc>Zint Generated Symbol</desc>
 <g id="barcode" fill="#000000">
  <rect x="0" y="0" width="615" height="193" fill="#FFFFFF"/>
  <path d="M0 0h4.8v153.6h-4.8ZM9.6 0h4.8v153.6h-4.8ZM19.2 0h4.8v153.6h-4.8ZM28.8 0h4.8v153.6h-4.8ZM38.4 0h4.8v153.6h-4.8ZM48 0h14.4v153.6h-14.4ZM76.8 0h14.4v153.6h-14.4ZM105.6 0h4.8v153.6h-4.8ZM115.2 0h4.8v153.6h-4.8ZM124.8 0h14.4v153.6h-14.4ZM153.6 0h14.4v153.6h-14.4ZM172.8 0h4.8v153.6h-4.8ZM192 0h4.8v153.6h-4.8ZM201.6 0h4.8v153.6h-4.8ZM220.8 0h4.8v153.6h-4.8ZM230.4 0h14.4v153.6h-14.4ZM249.6 0h14.4v153.6h-14.4ZM268.8 0h4.8v153.6h-4.8ZM278.4 0h4.8v153.6h-4.8ZM288 0h14.4v153.6h-14.4ZM307.2 0h14.4v153.6h-14.4ZM326.4 0h14.4v153.6h-14.4ZM345.6 0h4.8v153.6h-4.8ZM355.2 0h4.8v153.6h-4.8ZM364.8 0h14.4v153.6h-14.4ZM384 0h14.4v153.6h-14.4ZM403.2 0h14.4v153.6h-14.4ZM422.4 0h4.8v153.6h-4.8ZM432 0h4.8v153.6h-4.8ZM441.6 0h14.4v153.6h-14.4ZM460.8 0h4.8v153.6h-4.8ZM470.4 0h4.8v153.6h-4.8ZM480 0h4.8v153.6h-4.8ZM499.2 0h4.8v153.6h-4.8ZM518.4 0h4.8v153.6h-4.8ZM528 0h4.8v153.6h-4.8ZM537.6 0h14.4v153.6h-14.4ZM566.4 0h4.8v153.6h-4.8ZM576 0h4.8v153.6h-4.8ZM585.6 0h4.8v153.6h-4.8ZM595.2 0h4.8v153.6h-4.8ZM604.8 0h4.8v153.6h-4.8Z"/>
  <text x="307.2" y="185.63" text-anchor="middle" font-family="Arimo, Arial, sans-serif" font-size="33.6">
   Z8000
  </text>
 </g>
</svg>
